<mxfile host="65bd71144e">
    <diagram id="eJhjb9D7RqBPYiPqFJnu" name="Page-1">
        <mxGraphModel dx="805" dy="419" grid="1" gridSize="10" guides="1" tooltips="1" connect="1" arrows="1" fold="1" page="1" pageScale="1" pageWidth="850" pageHeight="1100" math="0" shadow="0">
            <root>
                <mxCell id="0"/>
                <mxCell id="1" parent="0"/>
                <mxCell id="zE-hi5zmLGF49CbdI1xG-174" value="" style="group" parent="1" vertex="1" connectable="0">
                    <mxGeometry x="60" y="22" width="720" height="681" as="geometry"/>
                </mxCell>
                <mxCell id="57" value="" style="group" parent="zE-hi5zmLGF49CbdI1xG-174" vertex="1" connectable="0">
                    <mxGeometry width="720" height="120" as="geometry"/>
                </mxCell>
                <mxCell id="12" value="" style="shape=datastore;whiteSpace=wrap;html=1;" parent="57" vertex="1">
                    <mxGeometry x="650" y="30" width="70" height="80" as="geometry"/>
                </mxCell>
                <mxCell id="19" value="" style="group" parent="57" vertex="1" connectable="0">
                    <mxGeometry x="340" y="40" width="80" height="80" as="geometry"/>
                </mxCell>
                <mxCell id="16" value="" style="rounded=1;whiteSpace=wrap;html=1;" parent="19" vertex="1">
                    <mxGeometry width="80" height="20" as="geometry"/>
                </mxCell>
                <mxCell id="17" value="" style="rounded=1;whiteSpace=wrap;html=1;" parent="19" vertex="1">
                    <mxGeometry y="30" width="80" height="20" as="geometry"/>
                </mxCell>
                <mxCell id="18" value="" style="rounded=1;whiteSpace=wrap;html=1;" parent="19" vertex="1">
                    <mxGeometry y="60" width="80" height="20" as="geometry"/>
                </mxCell>
                <mxCell id="24" value="&lt;b&gt;Client&lt;/b&gt;" style="text;html=1;align=center;verticalAlign=middle;whiteSpace=wrap;rounded=0;" parent="57" vertex="1">
                    <mxGeometry y="10" width="60" height="30" as="geometry"/>
                </mxCell>
                <mxCell id="25" value="&lt;b&gt;Server&lt;/b&gt;" style="text;html=1;align=center;verticalAlign=middle;whiteSpace=wrap;rounded=0;" parent="57" vertex="1">
                    <mxGeometry x="350" width="60" height="30" as="geometry"/>
                </mxCell>
                <mxCell id="26" value="&lt;b&gt;Database&lt;/b&gt;" style="text;html=1;align=center;verticalAlign=middle;whiteSpace=wrap;rounded=0;" parent="57" vertex="1">
                    <mxGeometry x="650" width="60" height="30" as="geometry"/>
                </mxCell>
                <mxCell id="40" value="" style="endArrow=classic;html=1;" parent="57" edge="1">
                    <mxGeometry relative="1" as="geometry">
                        <mxPoint x="80" y="60" as="sourcePoint"/>
                        <mxPoint x="290" y="60.5" as="targetPoint"/>
                    </mxGeometry>
                </mxCell>
                <mxCell id="41" value="HTTP Requst" style="edgeLabel;resizable=0;html=1;;align=center;verticalAlign=middle;" parent="40" connectable="0" vertex="1">
                    <mxGeometry relative="1" as="geometry"/>
                </mxCell>
                <mxCell id="42" value="" style="endArrow=classic;html=1;" parent="57" edge="1">
                    <mxGeometry relative="1" as="geometry">
                        <mxPoint x="431" y="60" as="sourcePoint"/>
                        <mxPoint x="641" y="60.5" as="targetPoint"/>
                    </mxGeometry>
                </mxCell>
                <mxCell id="43" value="Query" style="edgeLabel;resizable=0;html=1;;align=center;verticalAlign=middle;" parent="42" connectable="0" vertex="1">
                    <mxGeometry relative="1" as="geometry"/>
                </mxCell>
                <mxCell id="52" value="" style="endArrow=classic;html=1;" parent="57" edge="1">
                    <mxGeometry relative="1" as="geometry">
                        <mxPoint x="640" y="100" as="sourcePoint"/>
                        <mxPoint x="430" y="100" as="targetPoint"/>
                    </mxGeometry>
                </mxCell>
                <mxCell id="54" value="Response from db" style="edgeLabel;html=1;align=center;verticalAlign=middle;resizable=0;points=[];" parent="52" vertex="1" connectable="0">
                    <mxGeometry x="-0.0635" y="-1" relative="1" as="geometry">
                        <mxPoint as="offset"/>
                    </mxGeometry>
                </mxCell>
                <mxCell id="55" value="" style="endArrow=classic;html=1;" parent="57" edge="1">
                    <mxGeometry relative="1" as="geometry">
                        <mxPoint x="290" y="100" as="sourcePoint"/>
                        <mxPoint x="80" y="100" as="targetPoint"/>
                    </mxGeometry>
                </mxCell>
                <mxCell id="56" value="Response from server" style="edgeLabel;html=1;align=center;verticalAlign=middle;resizable=0;points=[];" parent="55" vertex="1" connectable="0">
                    <mxGeometry x="-0.0635" y="-1" relative="1" as="geometry">
                        <mxPoint as="offset"/>
                    </mxGeometry>
                </mxCell>
                <mxCell id="60" style="edgeStyle=orthogonalEdgeStyle;html=1;" parent="57" source="58" edge="1">
                    <mxGeometry relative="1" as="geometry">
                        <mxPoint x="130" y="161" as="targetPoint"/>
                        <Array as="points">
                            <mxPoint x="30" y="161"/>
                            <mxPoint x="51" y="161"/>
                        </Array>
                    </mxGeometry>
                </mxCell>
                <mxCell id="73" style="edgeStyle=orthogonalEdgeStyle;html=1;" parent="57" source="58" edge="1">
                    <mxGeometry relative="1" as="geometry">
                        <mxPoint x="130" y="611" as="targetPoint"/>
                        <Array as="points">
                            <mxPoint x="30" y="351"/>
                            <mxPoint x="31" y="351"/>
                            <mxPoint x="31" y="611"/>
                        </Array>
                    </mxGeometry>
                </mxCell>
                <mxCell id="58" value="" style="shape=actor;whiteSpace=wrap;html=1;" parent="57" vertex="1">
                    <mxGeometry x="10" y="40" width="40" height="60" as="geometry"/>
                </mxCell>
                <mxCell id="71" style="edgeStyle=orthogonalEdgeStyle;html=1;" parent="zE-hi5zmLGF49CbdI1xG-174" source="61" edge="1">
                    <mxGeometry relative="1" as="geometry">
                        <mxPoint x="690" y="121" as="targetPoint"/>
                    </mxGeometry>
                </mxCell>
                <mxCell id="61" value="Authentication" style="swimlane;startSize=20;horizontal=1;childLayout=flowLayout;flowOrientation=north;resizable=0;interRankCellSpacing=50;containerType=tree;fontSize=12;" parent="zE-hi5zmLGF49CbdI1xG-174" vertex="1">
                    <mxGeometry x="140" y="151" width="270" height="280" as="geometry"/>
                </mxCell>
                <mxCell id="62" value="auth" style="whiteSpace=wrap;html=1;" parent="61" vertex="1">
                    <mxGeometry x="85" y="40" width="100" height="40" as="geometry"/>
                </mxCell>
                <mxCell id="63" value="Signup" style="whiteSpace=wrap;html=1;" parent="61" vertex="1">
                    <mxGeometry x="20" y="130" width="100" height="40" as="geometry"/>
                </mxCell>
                <mxCell id="64" value="" style="html=1;rounded=1;curved=0;sourcePerimeterSpacing=0;targetPerimeterSpacing=0;startSize=6;endSize=6;noEdgeStyle=1;orthogonal=1;" parent="61" source="62" target="63" edge="1">
                    <mxGeometry relative="1" as="geometry">
                        <Array as="points">
                            <mxPoint x="112.5" y="92"/>
                            <mxPoint x="70" y="118"/>
                        </Array>
                    </mxGeometry>
                </mxCell>
                <mxCell id="65" value="Login" style="whiteSpace=wrap;html=1;" parent="61" vertex="1">
                    <mxGeometry x="150" y="130" width="100" height="40" as="geometry"/>
                </mxCell>
                <mxCell id="66" value="" style="html=1;rounded=1;curved=0;sourcePerimeterSpacing=0;targetPerimeterSpacing=0;startSize=6;endSize=6;noEdgeStyle=1;orthogonal=1;" parent="61" source="62" target="65" edge="1">
                    <mxGeometry relative="1" as="geometry">
                        <Array as="points">
                            <mxPoint x="157.5" y="92"/>
                            <mxPoint x="200" y="118"/>
                        </Array>
                    </mxGeometry>
                </mxCell>
                <mxCell id="67" value="JWT TOKEN" style="whiteSpace=wrap;html=1;" parent="61" vertex="1">
                    <mxGeometry x="85" y="220" width="100" height="40" as="geometry"/>
                </mxCell>
                <mxCell id="68" value="" style="html=1;rounded=1;curved=0;sourcePerimeterSpacing=0;targetPerimeterSpacing=0;startSize=6;endSize=6;noEdgeStyle=1;orthogonal=1;" parent="61" source="63" target="67" edge="1">
                    <mxGeometry relative="1" as="geometry">
                        <Array as="points">
                            <mxPoint x="70" y="182"/>
                            <mxPoint x="112.5" y="208"/>
                        </Array>
                    </mxGeometry>
                </mxCell>
                <mxCell id="69" value="" style="html=1;rounded=1;curved=0;sourcePerimeterSpacing=0;targetPerimeterSpacing=0;startSize=6;endSize=6;noEdgeStyle=1;orthogonal=1;" parent="61" source="65" target="67" edge="1">
                    <mxGeometry relative="1" as="geometry">
                        <Array as="points">
                            <mxPoint x="200" y="182"/>
                            <mxPoint x="157.5" y="208"/>
                        </Array>
                    </mxGeometry>
                </mxCell>
                <mxCell id="72" value="&lt;b&gt;Save user in the db&lt;/b&gt;" style="text;html=1;align=center;verticalAlign=middle;whiteSpace=wrap;rounded=0;" parent="zE-hi5zmLGF49CbdI1xG-174" vertex="1">
                    <mxGeometry x="470" y="261" width="160" height="30" as="geometry"/>
                </mxCell>
                <mxCell id="80" style="edgeStyle=orthogonalEdgeStyle;html=1;" parent="zE-hi5zmLGF49CbdI1xG-174" source="74" edge="1">
                    <mxGeometry relative="1" as="geometry">
                        <mxPoint x="690" y="119" as="targetPoint"/>
                    </mxGeometry>
                </mxCell>
                <mxCell id="74" value="User" style="swimlane;startSize=20;horizontal=0;childLayout=treeLayout;horizontalTree=1;sortEdges=1;resizable=0;containerType=tree;fontSize=12;" parent="zE-hi5zmLGF49CbdI1xG-174" vertex="1">
                    <mxGeometry x="130" y="521" width="310" height="160" as="geometry"/>
                </mxCell>
                <mxCell id="75" value="USER" style="whiteSpace=wrap;html=1;" parent="74" vertex="1">
                    <mxGeometry x="40" y="60" width="100" height="40" as="geometry"/>
                </mxCell>
                <mxCell id="76" value="&lt;font style=&quot;font-size: 9px;&quot;&gt;&lt;b&gt;GET USER INFORMATION&lt;/b&gt;&lt;/font&gt;" style="whiteSpace=wrap;html=1;" parent="74" vertex="1">
                    <mxGeometry x="190" y="20" width="100" height="40" as="geometry"/>
                </mxCell>
                <mxCell id="77" value="" style="edgeStyle=elbowEdgeStyle;elbow=horizontal;html=1;rounded=1;curved=0;sourcePerimeterSpacing=0;targetPerimeterSpacing=0;startSize=6;endSize=6;" parent="74" source="75" target="76" edge="1">
                    <mxGeometry relative="1" as="geometry"/>
                </mxCell>
                <mxCell id="78" value="&lt;b&gt;&lt;font style=&quot;font-size: 9px;&quot;&gt;UPDATE USER INFORMATION&lt;/font&gt;&lt;/b&gt;" style="whiteSpace=wrap;html=1;" parent="74" vertex="1">
                    <mxGeometry x="190" y="100" width="100" height="40" as="geometry"/>
                </mxCell>
                <mxCell id="79" value="" style="edgeStyle=elbowEdgeStyle;elbow=horizontal;html=1;rounded=1;curved=0;sourcePerimeterSpacing=0;targetPerimeterSpacing=0;startSize=6;endSize=6;" parent="74" source="75" target="78" edge="1">
                    <mxGeometry relative="1" as="geometry"/>
                </mxCell>
                <mxCell id="81" value="&lt;b&gt;Save user in the db&lt;/b&gt;" style="text;html=1;align=center;verticalAlign=middle;whiteSpace=wrap;rounded=0;" parent="zE-hi5zmLGF49CbdI1xG-174" vertex="1">
                    <mxGeometry x="490" y="571" width="130" height="30" as="geometry"/>
                </mxCell>
                <mxCell id="174" value="Security layers such as middleware should be in place to protect the system" style="text;html=1;align=center;verticalAlign=middle;whiteSpace=wrap;rounded=0;" parent="zE-hi5zmLGF49CbdI1xG-174" vertex="1">
                    <mxGeometry x="455" y="321" width="200" height="170" as="geometry"/>
                </mxCell>
            </root>
        </mxGraphModel>
    </diagram>
</mxfile>